<?xml version="1.0" encoding="utf-8"?>
<!-- Generator: Adobe Illustrator 24.3.0, SVG Export Plug-In . SVG Version: 6.00 Build 0)  -->
<svg version="1.1" xmlns="http://www.w3.org/2000/svg" xmlns:xlink="http://www.w3.org/1999/xlink" x="0px" y="0px"
	 viewBox="0 0 95 95" style="enable-background:new 0 0 95 95;" xml:space="preserve">
<style type="text/css">
	.st0{fill:#6B7D8E;}
</style>
<g id="Layer_2">
</g>
<g id="Layer_1">
	<path class="st0" d="M47.5,0C21.3,0,0,21.3,0,47.5S21.3,95,47.5,95S95,73.7,95,47.5S73.7,0,47.5,0z M72.6,51.7H66l-6.7,16
		c-0.7,1.6-2.2,2.6-3.9,2.6s-3.2-1-3.9-2.6L39.7,39.8l-3.9,9.3c-0.7,1.6-2.2,2.6-3.9,2.6h-9.5c-2.3,0-4.2-1.9-4.2-4.2
		s1.9-4.2,4.2-4.2h6.7l6.7-16c1.3-3.1,6.5-3.1,7.8,0l11.7,27.8l3.9-9.3c0.7-1.6,2.2-2.6,3.9-2.6h9.4c2.3,0,4.2,1.9,4.2,4.2
		S74.9,51.7,72.6,51.7z"/>
</g>
</svg>
